<!DOCTYPE svg PUBLIC "-//W3C//DTD SVG 1.1//EN" "http://www.w3.org/Graphics/SVG/1.1/DTD/svg11.dtd">
<!-- Uploaded to: SVG Repo, www.svgrepo.com, Transformed by: SVG Repo Mixer Tools -->
<svg version="1.1" id="Layer_1" xmlns="http://www.w3.org/2000/svg" xmlns:xlink="http://www.w3.org/1999/xlink" viewBox="0 0 512 512" xml:space="preserve" width="64px" height="64px" fill="#000000">
<g id="SVGRepo_bgCarrier" stroke-width="0"/>
<g id="SVGRepo_tracerCarrier" stroke-linecap="round" stroke-linejoin="round"/>
<g id="SVGRepo_iconCarrier"> <path style="fill:#FFB92E;" d="M58.53,273.569v99.923c0,7.173,5.815,12.989,12.989,12.989h248.636 c7.174,0,12.989-5.816,12.989-12.989v-99.923h-1.968"/> <path style="fill:#EF9A1D;" d="M88.385,373.48v-24.954v-74.971v-24.954H66.737v24.954v74.971v24.954 c0,7.173,5.815,12.989,12.988,12.989h21.649C94.201,386.469,88.385,380.653,88.385,373.48z"/> <path style="fill:#CCC3A8;" d="M333.146,61.201V21.108c0-7.173-5.815-12.989-12.989-12.989H71.519 c-7.174,0-12.989,5.816-12.989,12.989v219.987h274.615V86.824"/> <circle style="fill:#DFDBCC;" cx="195.838" cy="124.699" r="86.174"/> <g style="opacity:0.35;"> <path style="fill:#F5F5F5;" d="M277.928,169.063c7.802-12.963,12.297-28.143,12.297-44.375c0-44.36-33.521-80.878-76.613-85.638 c-31.93,8.243-55.517,37.239-55.517,71.745c0,40.922,33.173,74.094,74.094,74.094C249.455,184.888,265.33,178.965,277.928,169.063z "/> </g> <path style="fill:#C9B585;" d="M88.385,56.109V21.095c0-7.173,5.816-12.989,12.989-12.989H79.725 c-7.173,0-12.988,5.816-12.988,12.989v35.014v184.974v35.014h21.648v-35.014V56.109z"/> <circle style="fill:#E35F46;" cx="195.838" cy="124.699" r="20.147"/> <g> <path style="fill:#C9B585;" d="M250.785,406.504v-20.022h-35.544v20.022c0,7.174,5.815,12.989,12.989,12.989h9.566 C244.969,419.494,250.785,413.679,250.785,406.504z"/> <path style="fill:#C9B585;" d="M190.507,406.504v-20.022h-35.544v20.022c0,7.174,5.816,12.989,12.989,12.989h9.566 C184.692,419.494,190.507,413.679,190.507,406.504z"/> </g> <circle style="fill:#36A1CB;" cx="119.99" cy="329.066" r="20.147"/> <g> <path style="fill:#E35F46;" d="M415.268,65.305H404.57h-34.172h-10.696v26.87h10.696v55.932c0,7.173,5.816,12.989,12.989,12.989 h8.193c7.174,0,12.989-5.816,12.989-12.989V92.175h10.698V65.305z"/> <path style="fill:#E35F46;" d="M467.739,188.214h-10.698h-34.172h-10.696v26.87h10.696v55.932c0,7.173,5.816,12.989,12.989,12.989 h8.193c7.174,0,12.989-5.816,12.989-12.989v-55.932h10.698V188.214z"/> </g> <g> <rect x="359.699" y="65.304" style="fill:#CE3B28;" width="55.562" height="26.87"/> <rect x="412.177" y="188.217" style="fill:#CE3B28;" width="55.562" height="26.87"/> </g> <path style="fill:#D8422E;" d="M200.256,124.687c0-7.113,3.695-13.351,9.263-16.936c-3.141-2.023-6.872-3.211-10.886-3.211 c-11.127,0-20.147,9.02-20.147,20.147s9.02,20.147,20.147,20.147c4.014,0,7.744-1.187,10.886-3.211 C203.952,138.038,200.256,131.8,200.256,124.687z"/> <g> <path style="fill:#B22B20;" d="M389.559,86.751V70.705c0-2.99,2.423-5.412,5.412-5.412h-21.649c-2.99,0-5.412,2.423-5.412,5.412 V86.75c0,2.99,2.423,5.412,5.412,5.412h5.283h16.366C391.981,92.163,389.559,89.74,389.559,86.751z"/> <path style="fill:#B22B20;" d="M442.03,209.659v-16.045c0-2.99,2.423-5.412,5.412-5.412h-21.649c-2.99,0-5.412,2.423-5.412,5.412 v16.045c0,2.99,2.423,5.412,5.412,5.412h5.283h16.366C444.453,215.071,442.03,212.648,442.03,209.659z"/> </g> <path style="fill:#2B80AF;" d="M126.448,329.057c0-7.139,3.723-13.394,9.322-16.974c-3.128-1.999-6.836-3.174-10.825-3.174 c-11.127,0-20.147,9.02-20.147,20.147s9.02,20.147,20.147,20.147c3.989,0,7.696-1.174,10.825-3.174 C130.172,342.451,126.448,336.196,126.448,329.057z"/> <path style="fill:#7C7A75;" d="M292.383,273.569h38.794c8.967,0,16.237-7.27,16.237-16.237c0-8.967-7.27-16.237-16.237-16.237 H60.499c-8.967,0-16.237,7.27-16.237,16.237c0,8.967,7.27,16.237,16.237,16.237h204.824"/> <path style="fill:#6B6861;" d="M74.118,257.319c0-8.967,7.27-16.237,16.237-16.237H68.706c-8.967,0-16.237,7.27-16.237,16.237 c0,8.967,7.27,16.237,16.237,16.237h21.649C81.388,273.556,74.118,266.287,74.118,257.319z"/> <g> <path style="fill:#231F20;" d="M239.694,116.581H222.91c-3.497-11.641-14.307-20.147-27.071-20.147 c-15.585,0-28.265,12.68-28.265,28.265s12.68,28.265,28.265,28.265c12.764,0,23.574-8.507,27.071-20.147h16.785 c4.485,0,8.118-3.634,8.118-8.118C247.813,120.215,244.178,116.581,239.694,116.581z M195.838,136.728 c-6.632,0-12.028-5.396-12.028-12.028c0-6.632,5.396-12.028,12.028-12.028c6.632,0,12.028,5.396,12.028,12.028 C207.866,131.332,202.47,136.728,195.838,136.728z"/> <path style="fill:#231F20;" d="M181.906,321.309H286.38c4.485,0,8.118-3.634,8.118-8.118c0-4.485-3.634-8.118-8.118-8.118H181.906 c-4.485,0-8.118,3.634-8.118,8.118C173.787,317.675,177.421,321.309,181.906,321.309z"/> <path style="fill:#231F20;" d="M181.906,353.067H286.38c4.485,0,8.118-3.634,8.118-8.118s-3.634-8.118-8.118-8.118H181.906 c-4.485,0-8.118,3.634-8.118,8.118S177.421,353.067,181.906,353.067z"/> <path style="fill:#231F20;" d="M290.135,124.575c-0.034-25.474-10.224-48.611-26.726-65.578c-0.264-0.375-0.555-0.735-0.891-1.071 c-0.338-0.338-0.7-0.631-1.078-0.896c-16.702-16.197-39.36-26.281-64.331-26.613c-0.416-0.064-0.838-0.108-1.271-0.108 c-0.433,0-0.856,0.044-1.271,0.109c-24.974,0.332-47.634,10.419-64.338,26.62c-0.375,0.264-0.736,0.556-1.072,0.892 c-0.333,0.332-0.622,0.692-0.885,1.063c-16.506,16.967-26.699,40.106-26.731,65.584c0,0.011-0.001,0.021-0.001,0.031 c0,0.006,0.001,0.012,0.001,0.018c0,0.025-0.001,0.05-0.001,0.075c0,51.996,42.302,94.298,94.298,94.298 s94.298-42.302,94.298-94.298c0-0.025-0.001-0.05-0.001-0.075c0-0.006,0.001-0.012,0.001-0.018 C290.136,124.596,290.135,124.586,290.135,124.575z M195.838,202.761c-40.334,0-73.62-30.749-77.651-70.036h9.981 c4.485,0,8.118-3.634,8.118-8.118c0-4.485-3.634-8.118-8.118-8.118h-9.957c1.622-15.431,7.759-29.533,17.061-40.966l6.976,6.975 c1.585,1.585,3.663,2.377,5.74,2.377c2.077,0,4.156-0.792,5.741-2.378c3.171-3.171,3.171-8.311-0.001-11.48l-6.965-6.963 c11.438-9.273,25.534-15.39,40.956-16.991v9.876c0,4.485,3.634,8.118,8.118,8.118c4.485,0,8.118-3.634,8.118-8.118v-9.875 c15.422,1.601,29.516,7.718,40.955,16.99l-6.965,6.964c-3.171,3.172-3.171,8.311,0,11.482c1.586,1.585,3.664,2.377,5.741,2.377 c2.077,0,4.156-0.792,5.741-2.377l6.975-6.975c9.302,11.434,15.44,25.535,17.061,40.965h-9.956c-4.485,0-8.118,3.634-8.118,8.118 c0,4.485,3.634,8.118,8.118,8.118h9.98C269.458,172.013,236.172,202.761,195.838,202.761z"/> <path style="fill:#231F20;" d="M215.863,163.158h-40.051c-4.485,0-8.118,3.634-8.118,8.118s3.634,8.118,8.118,8.118h40.051 c4.485,0,8.118-3.634,8.118-8.118S220.348,163.158,215.863,163.158z"/> <path style="fill:#231F20;" d="M467.739,180.095h-19.665v-49.069c0-4.485-3.634-8.118-8.118-8.118s-8.118,3.634-8.118,8.118v49.069 h-19.664c-4.485,0-8.118,3.634-8.118,8.118v26.87c0,4.485,3.634,8.118,8.118,8.118h2.577v47.814 c0,10.263,7.366,18.829,17.086,20.713v199.164c0,2.686-2.185,4.871-4.871,4.871H185.582c-2.686,0-4.871-2.185-4.871-4.871v-63.549 c10.125-1.547,17.915-10.29,17.915-20.839V394.6h8.497v11.904c0,10.566,7.812,19.317,17.959,20.847v14.332 c0,11.639,9.469,21.108,21.108,21.108h128.306c11.639,0,21.108-9.469,21.108-21.108V168.82 c9.719-1.885,17.085-10.451,17.085-20.713v-47.814h2.579c4.485,0,8.118-3.634,8.118-8.118v-26.87c0-4.485-3.634-8.118-8.118-8.118 h-19.665V8.118c0-4.485-3.634-8.118-8.118-8.118s-8.118,3.634-8.118,8.118v49.069h-19.664c-4.485,0-8.118,3.634-8.118,8.118v26.87 c0,4.485,3.634,8.118,8.118,8.118h2.577v47.814c0,10.263,7.366,18.829,17.087,20.713v272.861c0,2.686-2.185,4.871-4.871,4.871 H246.189c-2.686,0-4.871-2.185-4.871-4.871v-14.388c9.964-1.684,17.586-10.354,17.586-20.79V394.6h61.253 c11.639,0,21.108-9.469,21.108-21.108v-94.001c8.409-3.843,14.269-12.327,14.269-22.159c0-9.832-5.86-18.316-14.269-22.159V86.824 c0-4.485-3.634-8.118-8.118-8.118c-4.485,0-8.118,3.634-8.118,8.118v146.153H66.648V21.108c0-2.686,2.185-4.871,4.871-4.871 h248.636c2.686,0,4.871,2.185,4.871,4.871v40.093c0,4.485,3.634,8.118,8.118,8.118c4.485,0,8.118-3.634,8.118-8.118V21.108 C341.263,9.469,331.794,0,320.155,0H71.519C59.881,0,50.411,9.469,50.411,21.108v214.065c-8.408,3.843-14.269,12.327-14.269,22.159 c0,9.832,5.86,18.316,14.269,22.159v94.001c0,11.639,9.469,21.108,21.108,21.108h75.325v11.904c0,10.451,7.644,19.13,17.63,20.796 v63.593c0,11.639,9.469,21.108,21.108,21.108h241.385c11.639,0,21.108-9.469,21.108-21.108V291.728 c9.719-1.885,17.085-10.451,17.085-20.713v-47.814h2.579c4.485,0,8.118-3.634,8.118-8.118v-26.87 C475.857,183.729,472.224,180.095,467.739,180.095z M367.821,73.424h39.329v10.633h-2.579h-34.172h-2.577V73.424z M378.517,100.294 h17.935v47.814c0,2.686-2.185,4.871-4.871,4.871h-8.193c-2.686,0-4.871-2.185-4.871-4.871V100.294z M242.667,406.504 c0,2.686-2.185,4.871-4.871,4.871h-9.566c-2.686,0-4.871-2.185-4.871-4.871V394.6h19.308V406.504z M66.648,373.493v-91.806h198.673 c4.485,0,8.118-3.634,8.118-8.118c0-4.485-3.634-8.118-8.118-8.118H60.499c-4.477,0-8.118-3.641-8.118-8.118 s3.641-8.118,8.118-8.118h270.678c4.477,0,8.118,3.641,8.118,8.118s-3.641,8.118-8.118,8.118h-38.794 c-4.485,0-8.118,3.634-8.118,8.118c0,4.485,3.634,8.118,8.118,8.118h32.644v91.806c0,2.686-2.185,4.871-4.871,4.871h-69.371H215.24 h-24.734h-35.545H71.519C68.834,378.364,66.648,376.178,66.648,373.493z M163.081,394.6h19.308v11.904 c0,2.686-2.185,4.871-4.871,4.871h-9.566c-2.686,0-4.871-2.185-4.871-4.871V394.6z M420.292,196.332h39.329v10.633h-2.579h-34.172 h-2.577V196.332z M448.924,271.016c0,2.686-2.185,4.871-4.871,4.871h-8.193c-2.686,0-4.871-2.185-4.871-4.871v-47.814h17.935 V271.016z"/> <path style="fill:#231F20;" d="M119.987,300.805c-15.585,0-28.265,12.68-28.265,28.265c0,15.585,12.68,28.265,28.265,28.265 s28.265-12.68,28.265-28.265C148.252,313.485,135.572,300.805,119.987,300.805z M119.987,341.098 c-6.632,0-12.028-5.396-12.028-12.028s5.396-12.028,12.028-12.028s12.028,5.396,12.028,12.028S126.619,341.098,119.987,341.098z"/> </g> </g>
</svg>